<svg width="512" height="512" version="1.1" xmlns="http://www.w3.org/2000/svg" desc="Created with imagetracer.js version 1.2.6" ><path fill="rgb(220,228,243)" stroke="rgb(220,228,243)" stroke-width="1" opacity="1" d="M 341.5 80 L 348 80.5 L 341.5 81 L 341.5 80 Z " /><path fill="rgb(220,228,243)" stroke="rgb(220,228,243)" stroke-width="1" opacity="1" d="M 408.5 82 L 413.5 88 L 408.5 82 Z " /><path fill="rgb(220,228,243)" stroke="rgb(220,228,243)" stroke-width="1" opacity="1" d="M 304.5 92 L 303.5 94 L 304.5 92 Z " /><path fill="rgb(220,228,243)" stroke="rgb(220,228,243)" stroke-width="1" opacity="1" d="M 295.5 98 L 294.5 100 L 295.5 98 Z " /><path fill="rgb(220,228,243)" stroke="rgb(220,228,243)" stroke-width="1" opacity="1" d="M 291.5 101 L 288.5 105 L 291.5 101 Z " /><path fill="rgb(220,228,243)" stroke="rgb(220,228,243)" stroke-width="1" opacity="1" d="M 280.5 112 L 277.5 116 L 280.5 112 Z " /><path fill="rgb(220,228,243)" stroke="rgb(220,228,243)" stroke-width="1" opacity="1" d="M 275.5 118 L 274.5 120 L 275.5 118 Z " /><path fill="rgb(220,228,243)" stroke="rgb(220,228,243)" stroke-width="1" opacity="1" d="M 269.5 127 L 268.5 129 L 269.5 127 Z " /><path fill="rgb(220,228,243)" stroke="rgb(220,228,243)" stroke-width="1" opacity="1" d="M 413.5 152 L 408.5 158 L 413.5 152 Z " /><path fill="rgb(220,228,243)" stroke="rgb(220,228,243)" stroke-width="1" opacity="1" d="M 341.5 163 L 339.5 166 L 341.5 163 Z " /><path fill="rgb(220,228,243)" stroke="rgb(220,228,243)" stroke-width="1" opacity="1" d="M 256.5 166 L 257 171.5 L 256 171.5 L 256.5 166 Z " /><path fill="rgb(220,228,243)" stroke="rgb(220,228,243)" stroke-width="1" opacity="1" d="M 199.5 242 L 198.5 244 L 199.5 242 Z " /><path fill="rgb(220,228,243)" stroke="rgb(220,228,243)" stroke-width="1" opacity="1" d="M 407.5 244 L 408.5 246 L 407.5 244 Z " /><path fill="rgb(220,228,243)" stroke="rgb(220,228,243)" stroke-width="1" opacity="1" d="M 195.5 246 L 194.5 248 L 195.5 246 Z " /><path fill="rgb(220,228,243)" stroke="rgb(220,228,243)" stroke-width="1" opacity="1" d="M 194.5 312 L 199.5 318 L 194.5 312 Z " /><path fill="rgb(220,228,243)" stroke="rgb(220,228,243)" stroke-width="1" opacity="1" d="M 399.5 313 L 396.5 317 L 399.5 313 Z " /><path fill="rgb(255,255,255)" stroke="rgb(255,255,255)" stroke-width="1" opacity="1" d="M 348.5 80 L 401.5 80 Q 410.4 81.6 414 88.5 L 416 94.5 L 416 145.5 Q 414.4 154.4 407.5 158 L 401.5 160 L 347.5 160 L 339 165.5 L 336 171.5 L 336 240 L 397.5 240 Q 406 241.5 410 247.5 Q 413 251.5 412 259.5 L 402 308.5 L 394.5 318 L 387.5 320 L 336 320 L 336 512 L 256 512 L 256 320.5 L 255.5 320 L 206.5 320 Q 197.6 318.4 194 311.5 L 192 305.5 L 192 254.5 Q 193.3 247.8 197.5 244 L 206.5 240 L 256 240 L 256 172.5 L 257 171.5 L 258 156.5 Q 265.7 123.7 287.5 105 Q 298.7 94.7 313.5 88 L 332.5 82 L 347.5 81 L 348.5 80 Z " /><path fill="rgb(0,0,0)" stroke="rgb(0,0,0)" stroke-width="1" opacity="0" d="M 0 0 L 112 0.5 L 92.5 4 L 69.5 13 Q 45 26 28 46.5 Q 16.6 60.6 9 78.5 Q 2.4 92.9 0.5 112 L 0 0 Z " /><path fill="rgb(0,0,0)" stroke="rgb(0,0,0)" stroke-width="1" opacity="0" d="M 400.5 0 L 512 0 L 512 111.5 L 511 111.5 L 511 105.5 L 508 92.5 L 500 71.5 Q 487.3 46.2 466.5 29 L 440.5 12 L 419.5 4 L 406.5 1 L 400.5 1 L 400.5 0 Z " /><path fill="rgb(0,0,0)" stroke="rgb(0,0,0)" stroke-width="1" opacity="0" d="M 0.5 400 L 4 419.5 L 12 440.5 Q 24.7 465.8 45.5 483 L 71.5 500 L 92.5 508 L 112 511.5 L 0 512 L 0.5 400 Z " /><path fill="rgb(0,0,0)" stroke="rgb(0,0,0)" stroke-width="1" opacity="0" d="M 511.5 400 L 512 512 L 400 511.5 L 419.5 508 L 442.5 499 Q 466.6 486.6 483 466.5 L 500 440.5 L 508 419.5 L 511.5 400 Z " /><path fill="rgb(77,121,203)" stroke="rgb(77,121,203)" stroke-width="1" opacity="0.8823529411764706" d="M 116.5 0 L 121 0.5 L 116.5 1 L 116.5 0 Z " /><path fill="rgb(77,121,203)" stroke="rgb(77,121,203)" stroke-width="1" opacity="0.8823529411764706" d="M 390.5 0 L 394 0.5 L 390.5 1 L 390.5 0 Z " /><path fill="rgb(77,121,203)" stroke="rgb(77,121,203)" stroke-width="1" opacity="0.8823529411764706" d="M 108.5 1 L 111 1.5 L 108.5 2 L 108.5 1 Z " /><path fill="rgb(77,121,203)" stroke="rgb(77,121,203)" stroke-width="1" opacity="0.8823529411764706" d="M 61.5 18 L 60.5 20 L 61.5 18 Z " /><path fill="rgb(77,121,203)" stroke="rgb(77,121,203)" stroke-width="1" opacity="0.8823529411764706" d="M 55.5 22 L 54.5 24 L 55.5 22 Z " /><path fill="rgb(77,121,203)" stroke="rgb(77,121,203)" stroke-width="1" opacity="0.8823529411764706" d="M 47.5 28 L 46.5 30 L 47.5 28 Z " /><path fill="rgb(77,121,203)" stroke="rgb(77,121,203)" stroke-width="1" opacity="0.8823529411764706" d="M 40.5 34 L 35.5 40 L 40.5 34 Z " /><path fill="rgb(77,121,203)" stroke="rgb(77,121,203)" stroke-width="1" opacity="0.8823529411764706" d="M 30.5 45 L 28.5 48 L 30.5 45 Z " /><path fill="rgb(77,121,203)" stroke="rgb(77,121,203)" stroke-width="1" opacity="0.8823529411764706" d="M 23.5 54 L 22.5 56 L 23.5 54 Z " /><path fill="rgb(77,121,203)" stroke="rgb(77,121,203)" stroke-width="1" opacity="0.8823529411764706" d="M 19.5 60 L 18.5 62 L 19.5 60 Z " /><path fill="rgb(77,121,203)" stroke="rgb(77,121,203)" stroke-width="1" opacity="0.8823529411764706" d="M 1.5 108 L 2 110.5 L 1 110.5 L 1.5 108 Z " /><path fill="rgb(77,121,203)" stroke="rgb(77,121,203)" stroke-width="1" opacity="0.8823529411764706" d="M 0.5 116 L 1 120.5 L 0 120.5 L 0.5 116 Z " /><path fill="rgb(80,125,210)" stroke="rgb(80,125,210)" stroke-width="1" opacity="1" d="M 121.5 0 L 389.5 0 L 390.5 1 L 402.5 2 L 419.5 9 Q 432.3 16.3 441 27.5 Q 449.6 38.4 454 53.5 L 456 64.5 L 456 79.5 L 454 90.5 L 447 107.5 Q 439.8 120.3 428.5 129 L 416 136 L 416 92.5 Q 414.2 85.3 408.5 82 L 403.5 80 L 341.5 80 L 326.5 83 L 304.5 92 Q 288.4 101.4 277 115.5 Q 266.5 127.3 262 144 L 224.5 144 L 223.5 145 L 205.5 146 L 180.5 151 L 155.5 159 Q 99.1 181.1 62 222.5 Q 35.7 251.2 19 289.5 L 6 328.5 L 2 349.5 L 0.5 368 L 0 121.5 L 1 120.5 L 1 111.5 L 4 95.5 L 12 73.5 Q 24.5 47.5 45.5 30 Q 60.6 17.1 80.5 9 L 104.5 2 L 120.5 1 L 121.5 0 Z " /><path fill="rgb(80,125,210)" stroke="rgb(80,125,210)" stroke-width="1" opacity="1" d="M 412.5 154 L 410.5 157 L 412.5 154 Z " /><path fill="rgb(80,125,210)" stroke="rgb(80,125,210)" stroke-width="1" opacity="1" d="M 343.5 162 L 342.5 164 L 343.5 162 Z " /><path fill="rgb(80,125,210)" stroke="rgb(80,125,210)" stroke-width="1" opacity="1" d="M 256.5 163 L 257 165.5 L 256 165.5 L 256.5 163 Z " /><path fill="rgb(80,125,210)" stroke="rgb(80,125,210)" stroke-width="1" opacity="1" d="M 339.5 166 L 338.5 168 L 339.5 166 Z " /><path fill="rgb(80,125,210)" stroke="rgb(80,125,210)" stroke-width="1" opacity="1" d="M 405.5 242 L 406.5 244 L 405.5 242 Z " /><path fill="rgb(80,125,210)" stroke="rgb(80,125,210)" stroke-width="1" opacity="1" d="M 197.5 243 L 195.5 246 L 197.5 243 Z " /><path fill="rgb(80,125,210)" stroke="rgb(80,125,210)" stroke-width="1" opacity="1" d="M 412.5 253 L 413 258.5 L 412 258.5 L 412.5 253 Z " /><path fill="rgb(80,125,210)" stroke="rgb(80,125,210)" stroke-width="1" opacity="1" d="M 195.5 314 L 197.5 317 L 195.5 314 Z " /><path fill="rgb(55,99,184)" stroke="rgb(55,99,184)" stroke-width="1" opacity="0.5137254901960784" d="M 112.5 0 L 116 0.5 L 112.5 1 L 112.5 0 Z " /><path fill="rgb(55,99,184)" stroke="rgb(55,99,184)" stroke-width="1" opacity="0.5137254901960784" d="M 394.5 0 L 400 0.5 L 394.5 1 L 394.5 0 Z " /><path fill="rgb(55,99,184)" stroke="rgb(55,99,184)" stroke-width="1" opacity="0.5137254901960784" d="M 105.5 1 L 108 1.5 L 105.5 2 L 105.5 1 Z " /><path fill="rgb(55,99,184)" stroke="rgb(55,99,184)" stroke-width="1" opacity="0.5137254901960784" d="M 402.5 1 L 407 1.5 L 402.5 2 L 402.5 1 Z " /><path fill="rgb(55,99,184)" stroke="rgb(55,99,184)" stroke-width="1" opacity="0.5137254901960784" d="M 408.5 2 L 412 2.5 L 408.5 3 L 408.5 2 Z " /><path fill="rgb(55,99,184)" stroke="rgb(55,99,184)" stroke-width="1" opacity="0.5137254901960784" d="M 413.5 3 L 416 3.5 L 413.5 4 L 413.5 3 Z " /><path fill="rgb(55,99,184)" stroke="rgb(55,99,184)" stroke-width="1" opacity="0.5137254901960784" d="M 417.5 4 L 423 5.5 L 420.5 6 L 417.5 5 L 417.5 4 Z " /><path fill="rgb(55,99,184)" stroke="rgb(55,99,184)" stroke-width="1" opacity="0.5137254901960784" d="M 424.5 6 L 431 8.5 L 429.5 9 L 424.5 7 L 424.5 6 Z " /><path fill="rgb(55,99,184)" stroke="rgb(55,99,184)" stroke-width="1" opacity="0.5137254901960784" d="M 432.5 9 L 436 10.5 L 434.5 11 L 432.5 9 Z " /><path fill="rgb(55,99,184)" stroke="rgb(55,99,184)" stroke-width="1" opacity="0.5137254901960784" d="M 71.5 12 L 73 12.5 L 68.5 15 L 69.5 13 L 71.5 12 Z " /><path fill="rgb(55,99,184)" stroke="rgb(55,99,184)" stroke-width="1" opacity="0.5137254901960784" d="M 439.5 12 L 444 14.5 L 442.5 14 Q 438.7 13.7 439.5 12 Z " /><path fill="rgb(55,99,184)" stroke="rgb(55,99,184)" stroke-width="1" opacity="0.5137254901960784" d="M 445.5 15 L 451 18.5 L 449.5 18 Q 445.5 17.5 445.5 15 Z " /><path fill="rgb(55,99,184)" stroke="rgb(55,99,184)" stroke-width="1" opacity="0.5137254901960784" d="M 452.5 19 Q 470.1 29.9 483 45.5 L 497 66.5 L 495 65.5 Q 484.1 44.4 466.5 30 L 453.5 21 L 452.5 19 Z " /><path fill="rgb(55,99,184)" stroke="rgb(55,99,184)" stroke-width="1" opacity="0.5137254901960784" d="M 57.5 20 L 56.5 22 L 57.5 20 Z " /><path fill="rgb(55,99,184)" stroke="rgb(55,99,184)" stroke-width="1" opacity="0.5137254901960784" d="M 54.5 22 L 52.5 25 L 54.5 22 Z " /><path fill="rgb(55,99,184)" stroke="rgb(55,99,184)" stroke-width="1" opacity="0.5137254901960784" d="M 50.5 25 L 48.5 28 L 50.5 25 Z " /><path fill="rgb(55,99,184)" stroke="rgb(55,99,184)" stroke-width="1" opacity="0.5137254901960784" d="M 45.5 29 L 41.5 34 L 45.5 29 Z " /><path fill="rgb(55,99,184)" stroke="rgb(55,99,184)" stroke-width="1" opacity="0.5137254901960784" d="M 34.5 40 L 28.5 47 L 34.5 40 Z " /><path fill="rgb(55,99,184)" stroke="rgb(55,99,184)" stroke-width="1" opacity="0.5137254901960784" d="M 27.5 48 L 25.5 51 L 27.5 48 Z " /><path fill="rgb(55,99,184)" stroke="rgb(55,99,184)" stroke-width="1" opacity="0.5137254901960784" d="M 24.5 52 L 22.5 55 L 24.5 52 Z " /><path fill="rgb(55,99,184)" stroke="rgb(55,99,184)" stroke-width="1" opacity="0.5137254901960784" d="M 21.5 56 L 20.5 58 L 21.5 56 Z " /><path fill="rgb(55,99,184)" stroke="rgb(55,99,184)" stroke-width="1" opacity="0.5137254901960784" d="M 14.5 68 L 14 69.5 L 12.5 73 L 12 71.5 L 14.5 68 Z " /><path fill="rgb(55,99,184)" stroke="rgb(55,99,184)" stroke-width="1" opacity="0.5137254901960784" d="M 498.5 70 L 500 72.5 L 499 72.5 L 498.5 70 Z " /><path fill="rgb(55,99,184)" stroke="rgb(55,99,184)" stroke-width="1" opacity="0.5137254901960784" d="M 500.5 74 L 503 79.5 L 502 79.5 L 500.5 74 Z " /><path fill="rgb(55,99,184)" stroke="rgb(55,99,184)" stroke-width="1" opacity="0.5137254901960784" d="M 503.5 81 L 508 94.5 L 507 94.5 L 503.5 81 Z " /><path fill="rgb(55,99,184)" stroke="rgb(55,99,184)" stroke-width="1" opacity="0.5137254901960784" d="M 508.5 96 L 509 98.5 L 508 98.5 L 508.5 96 Z " /><path fill="rgb(55,99,184)" stroke="rgb(55,99,184)" stroke-width="1" opacity="0.5137254901960784" d="M 509.5 100 L 510 103.5 L 509 103.5 L 509.5 100 Z " /><path fill="rgb(55,99,184)" stroke="rgb(55,99,184)" stroke-width="1" opacity="0.5137254901960784" d="M 1.5 105 L 2 107.5 L 1 107.5 L 1.5 105 Z " /><path fill="rgb(55,99,184)" stroke="rgb(55,99,184)" stroke-width="1" opacity="0.5137254901960784" d="M 510.5 105 L 511 109.5 L 510 109.5 L 510.5 105 Z " /><path fill="rgb(55,99,184)" stroke="rgb(55,99,184)" stroke-width="1" opacity="0.5137254901960784" d="M 0.5 112 L 1 115.5 L 0 115.5 L 0.5 112 Z " /><path fill="rgb(55,99,184)" stroke="rgb(55,99,184)" stroke-width="1" opacity="0.5137254901960784" d="M 511.5 112 L 512 119.5 L 511 119.5 L 511.5 112 Z " /><path fill="rgb(55,99,184)" stroke="rgb(55,99,184)" stroke-width="1" opacity="0.5137254901960784" d="M 0.5 392 L 1 399.5 L 0 399.5 L 0.5 392 Z " /><path fill="rgb(55,99,184)" stroke="rgb(55,99,184)" stroke-width="1" opacity="0.5137254901960784" d="M 511.5 397 L 512 399.5 L 511 399.5 L 511.5 397 Z " /><path fill="rgb(55,99,184)" stroke="rgb(55,99,184)" stroke-width="1" opacity="0.5137254901960784" d="M 1.5 402 L 2 406.5 L 1 406.5 L 1.5 402 Z " /><path fill="rgb(55,99,184)" stroke="rgb(55,99,184)" stroke-width="1" opacity="0.5137254901960784" d="M 2.5 408 L 3 411.5 L 2 411.5 L 2.5 408 Z " /><path fill="rgb(55,99,184)" stroke="rgb(55,99,184)" stroke-width="1" opacity="0.5137254901960784" d="M 3.5 413 L 4 415.5 L 3 415.5 L 3.5 413 Z " /><path fill="rgb(55,99,184)" stroke="rgb(55,99,184)" stroke-width="1" opacity="0.5137254901960784" d="M 4.5 417 L 6 422.5 L 5 422.5 L 4.5 417 Z " /><path fill="rgb(55,99,184)" stroke="rgb(55,99,184)" stroke-width="1" opacity="0.5137254901960784" d="M 6.5 424 L 9 430.5 L 8 430.5 L 6.5 424 Z " /><path fill="rgb(55,99,184)" stroke="rgb(55,99,184)" stroke-width="1" opacity="0.5137254901960784" d="M 9.5 432 L 12 437.5 L 11 437.5 L 9.5 432 Z " /><path fill="rgb(55,99,184)" stroke="rgb(55,99,184)" stroke-width="1" opacity="0.5137254901960784" d="M 12.5 439 L 14 441.5 L 12 440.5 L 12.5 439 Z " /><path fill="rgb(55,99,184)" stroke="rgb(55,99,184)" stroke-width="1" opacity="0.5137254901960784" d="M 15.5 445 Q 27.2 466.8 45.5 482 L 67 496.5 L 65.5 496 Q 43.8 484.8 29 466.5 Q 19.9 456.9 15.5 445 Z " /><path fill="rgb(55,99,184)" stroke="rgb(55,99,184)" stroke-width="1" opacity="0.5137254901960784" d="M 491.5 454 L 490.5 456 L 491.5 454 Z " /><path fill="rgb(55,99,184)" stroke="rgb(55,99,184)" stroke-width="1" opacity="0.5137254901960784" d="M 489.5 457 L 488.5 459 L 489.5 457 Z " /><path fill="rgb(55,99,184)" stroke="rgb(55,99,184)" stroke-width="1" opacity="0.5137254901960784" d="M 486.5 461 L 484.5 464 L 486.5 461 Z " /><path fill="rgb(55,99,184)" stroke="rgb(55,99,184)" stroke-width="1" opacity="0.5137254901960784" d="M 482.5 466 L 479.5 470 L 482.5 466 Z " /><path fill="rgb(55,99,184)" stroke="rgb(55,99,184)" stroke-width="1" opacity="0.5137254901960784" d="M 469.5 479 L 465.5 484 L 469.5 479 Z " /><path fill="rgb(55,99,184)" stroke="rgb(55,99,184)" stroke-width="1" opacity="0.5137254901960784" d="M 463.5 484 L 461.5 487 L 463.5 484 Z " /><path fill="rgb(55,99,184)" stroke="rgb(55,99,184)" stroke-width="1" opacity="0.5137254901960784" d="M 458.5 488 L 457.5 490 L 458.5 488 Z " /><path fill="rgb(55,99,184)" stroke="rgb(55,99,184)" stroke-width="1" opacity="0.5137254901960784" d="M 455.5 490 L 454.5 492 L 455.5 490 Z " /><path fill="rgb(55,99,184)" stroke="rgb(55,99,184)" stroke-width="1" opacity="0.5137254901960784" d="M 443.5 497 L 442.5 499 L 443.5 497 Z " /><path fill="rgb(55,99,184)" stroke="rgb(55,99,184)" stroke-width="1" opacity="0.5137254901960784" d="M 70.5 498 L 73 499.5 L 71.5 500 L 70.5 498 Z " /><path fill="rgb(55,99,184)" stroke="rgb(55,99,184)" stroke-width="1" opacity="0.5137254901960784" d="M 74.5 500 L 80 502.5 L 78.5 503 L 74.5 501 L 74.5 500 Z " /><path fill="rgb(55,99,184)" stroke="rgb(55,99,184)" stroke-width="1" opacity="0.5137254901960784" d="M 81.5 503 L 95 507.5 L 92.5 508 L 81.5 504 L 81.5 503 Z " /><path fill="rgb(55,99,184)" stroke="rgb(55,99,184)" stroke-width="1" opacity="0.5137254901960784" d="M 96.5 508 L 104 509.5 L 100.5 510 L 96.5 509 L 96.5 508 Z " /><path fill="rgb(55,99,184)" stroke="rgb(55,99,184)" stroke-width="1" opacity="0.5137254901960784" d="M 105.5 510 L 110 510.5 L 105.5 511 L 105.5 510 Z " /><path fill="rgb(55,99,184)" stroke="rgb(55,99,184)" stroke-width="1" opacity="0.5137254901960784" d="M 112.5 511 L 120 511.5 L 112.5 512 L 112.5 511 Z " /><path fill="rgb(55,99,184)" stroke="rgb(55,99,184)" stroke-width="1" opacity="0.5137254901960784" d="M 397.5 511 L 400 511.5 L 397.5 512 L 397.5 511 Z " /><path fill="rgb(55,100,185)" stroke="rgb(55,100,185)" stroke-width="1" opacity="1" d="M 399.5 1 L 402 1.5 L 399.5 2 L 399.5 1 Z " /><path fill="rgb(55,100,185)" stroke="rgb(55,100,185)" stroke-width="1" opacity="1" d="M 403.5 2 L 423.5 6 L 444.5 15 Q 466.5 27 482 45.5 Q 499.7 65.8 508 95.5 L 511 110.5 L 511 119.5 L 512 120.5 L 512 138.5 L 511 139.5 L 511 147.5 L 509 157.5 L 502 178.5 L 487 204.5 L 475 219 L 448.5 239 Q 432.3 248.7 412 253 L 412 249.5 L 405.5 242 L 401.5 240 L 336 240 L 336 174.5 Q 337.3 167.8 341.5 164 L 350.5 160 L 404.5 160 L 413 154.5 L 416 148.5 L 416 136 Q 431.3 129.6 441 116.5 Q 449.6 105.6 454 90.5 L 456 79.5 L 456 64.5 L 454 53.5 L 447 36.5 Q 439.8 23.8 428.5 15 L 411.5 5 L 403.5 3 L 403.5 2 Z " /><path fill="rgb(55,100,185)" stroke="rgb(55,100,185)" stroke-width="1" opacity="1" d="M 224.5 144 L 260.5 144 L 261 145.5 L 258 152.5 L 256 163.5 L 256 240 L 203.5 240 L 195 245.5 L 192 251.5 L 192 308.5 L 197.5 317 L 203.5 320 L 256 320 L 256 512 L 120.5 512 L 119.5 511 L 110.5 511 L 95.5 508 L 67.5 497 Q 45.5 485 30 466.5 Q 14.5 448.5 6 423.5 L 1 401.5 L 0 368.5 L 1 367.5 L 2 349.5 L 7 324.5 L 22 282.5 Q 43.5 237.5 78.5 206 Q 107.2 179.7 145.5 163 L 184.5 150 L 205.5 146 L 223.5 145 L 224.5 144 Z " /><path fill="rgb(55,100,185)" stroke="rgb(55,100,185)" stroke-width="1" opacity="1" d="M 398.5 315 L 397.5 317 L 398.5 315 Z " /><path fill="rgb(55,100,185)" stroke="rgb(55,100,185)" stroke-width="1" opacity="1" d="M 336 503 Q 351.3 510 373 511.5 L 336 512 L 336 503 Z " /><path fill="rgb(37,82,167)" stroke="rgb(37,82,167)" stroke-width="1" opacity="0.6901960784313725" d="M 511.5 393 L 512 396.5 L 511 396.5 L 511.5 393 Z " /><path fill="rgb(37,82,167)" stroke="rgb(37,82,167)" stroke-width="1" opacity="0.6901960784313725" d="M 487.5 459 L 486.5 461 L 487.5 459 Z " /><path fill="rgb(37,82,167)" stroke="rgb(37,82,167)" stroke-width="1" opacity="0.6901960784313725" d="M 478.5 470 L 470.5 479 L 478.5 470 Z " /><path fill="rgb(37,82,167)" stroke="rgb(37,82,167)" stroke-width="1" opacity="0.6901960784313725" d="M 460.5 486 L 459.5 488 L 460.5 486 Z " /><path fill="rgb(37,82,167)" stroke="rgb(37,82,167)" stroke-width="1" opacity="0.6901960784313725" d="M 402.5 510 L 405 510.5 L 402.5 511 L 402.5 510 Z " /><path fill="rgb(37,82,167)" stroke="rgb(37,82,167)" stroke-width="1" opacity="0.6901960784313725" d="M 393.5 511 L 397 511.5 L 393.5 512 L 393.5 511 Z " /><path fill="rgb(30,75,160)" stroke="rgb(30,75,160)" stroke-width="1" opacity="1" d="M 511.5 139 L 512 392.5 L 507 420.5 L 496 446.5 Q 483.9 467.9 465.5 483 Q 446.8 498.8 420.5 507 L 392.5 512 L 373.5 512 L 372.5 511 L 354.5 509 L 336 503 L 336 320.5 L 336.5 320 L 391.5 320 L 399 315.5 L 404 304.5 L 413 259.5 L 413 253.5 L 414.5 252 Q 434.1 248.1 448.5 239 L 475 219 L 487 204.5 L 502 178.5 L 509 157.5 L 511.5 139 Z " /></svg>