<svg width="512" height="512" version="1.1" xmlns="http://www.w3.org/2000/svg" desc="Created with imagetracer.js version 1.2.6" ><path fill="rgb(218,65,133)" stroke="rgb(218,65,133)" stroke-width="1" opacity="0.996078431372549" d="M 220.5 0 L 403.5 0 Q 405.2 2.8 411.5 1 L 435.5 6 L 454.5 14 Q 471.7 23.3 484 37.5 Q 494.9 50.1 502 66.5 L 507 80.5 L 512 106.5 L 512 336.5 L 506 331.5 L 445 260.5 L 445 183.5 L 444 182.5 L 444 170.5 L 443 169.5 L 441 150.5 Q 432.4 112.6 406.5 92 Q 387.1 75.4 356.5 70 L 343.5 69 L 342.5 68 L 332.5 68 L 331.5 67 L 269 66.5 L 276 65.5 L 223 4.5 L 220.5 0 Z " /><path fill="rgb(218,65,133)" stroke="rgb(218,65,133)" stroke-width="1" opacity="0.996078431372549" d="M 217.5 66 L 232 66.5 L 217.5 67 L 217.5 66 Z " /><path fill="rgb(218,65,133)" stroke="rgb(218,65,133)" stroke-width="1" opacity="0.996078431372549" d="M 307.5 101 L 338.5 102 L 360.5 106 Q 378.2 110.8 389 122.5 L 399 137.5 L 406 158.5 L 409 174.5 L 409 181.5 L 410 182.5 L 410 191.5 L 411 192.5 L 412 221.5 L 409 219.5 L 370 173.5 L 375 169.5 Q 380.1 163.6 380 152.5 Q 378.4 143.1 372.5 138 Q 366.3 131.7 353.5 132 L 339.5 139 L 307.5 101 Z " /><path fill="rgb(218,65,133)" stroke="rgb(218,65,133)" stroke-width="1" opacity="0.996078431372549" d="M 338.5 141 L 337.5 143 L 338.5 141 Z " /><path fill="rgb(218,65,133)" stroke="rgb(218,65,133)" stroke-width="1" opacity="0.996078431372549" d="M 411.5 278 L 412 282.5 L 411 282.5 L 411.5 278 Z " /><path fill="rgb(254,242,241)" stroke="rgb(254,242,241)" stroke-width="1" opacity="1" d="M 194.5 67 L 199 67.5 L 194.5 68 L 194.5 67 Z " /><path fill="rgb(254,242,241)" stroke="rgb(254,242,241)" stroke-width="1" opacity="1" d="M 318.5 67 L 323 67.5 L 318.5 68 L 318.5 67 Z " /><path fill="rgb(254,242,241)" stroke="rgb(254,242,241)" stroke-width="1" opacity="1" d="M 177.5 68 L 180 68.5 L 177.5 69 L 177.5 68 Z " /><path fill="rgb(254,242,241)" stroke="rgb(254,242,241)" stroke-width="1" opacity="1" d="M 403.5 90 L 404.5 92 L 403.5 90 Z " /><path fill="rgb(254,242,241)" stroke="rgb(254,242,241)" stroke-width="1" opacity="1" d="M 101.5 95 L 96.5 101 L 101.5 95 Z " /><path fill="rgb(254,242,241)" stroke="rgb(254,242,241)" stroke-width="1" opacity="1" d="M 409.5 95 L 416.5 103 L 409.5 95 Z " /><path fill="rgb(254,242,241)" stroke="rgb(254,242,241)" stroke-width="1" opacity="1" d="M 249.5 100 L 278 100.5 L 249.5 101 L 249.5 100 Z " /><path fill="rgb(254,242,241)" stroke="rgb(254,242,241)" stroke-width="1" opacity="1" d="M 309.5 100 L 317 100.5 L 309.5 101 L 309.5 100 Z " /><path fill="rgb(254,242,241)" stroke="rgb(254,242,241)" stroke-width="1" opacity="1" d="M 185.5 101 L 188 101.5 L 185.5 102 L 185.5 101 Z " /><path fill="rgb(254,242,241)" stroke="rgb(254,242,241)" stroke-width="1" opacity="1" d="M 332.5 101 L 335 101.5 L 332.5 102 L 332.5 101 Z " /><path fill="rgb(254,242,241)" stroke="rgb(254,242,241)" stroke-width="1" opacity="1" d="M 171.5 102 L 174 102.5 L 171.5 103 L 171.5 102 Z " /><path fill="rgb(254,242,241)" stroke="rgb(254,242,241)" stroke-width="1" opacity="1" d="M 92.5 105 L 91.5 107 L 92.5 105 Z " /><path fill="rgb(254,242,241)" stroke="rgb(254,242,241)" stroke-width="1" opacity="1" d="M 420.5 107 L 421.5 109 L 420.5 107 Z " /><path fill="rgb(254,242,241)" stroke="rgb(254,242,241)" stroke-width="1" opacity="1" d="M 127.5 116 L 126.5 118 L 127.5 116 Z " /><path fill="rgb(254,242,241)" stroke="rgb(254,242,241)" stroke-width="1" opacity="1" d="M 387.5 120 L 388.5 122 L 387.5 120 Z " /><path fill="rgb(254,242,241)" stroke="rgb(254,242,241)" stroke-width="1" opacity="1" d="M 120.5 123 L 119.5 125 L 120.5 123 Z " /><path fill="rgb(254,242,241)" stroke="rgb(254,242,241)" stroke-width="1" opacity="1" d="M 249.5 159 L 252 159.5 L 249.5 160 L 249.5 159 Z " /><path fill="rgb(254,242,241)" stroke="rgb(254,242,241)" stroke-width="1" opacity="1" d="M 260.5 159 L 263 159.5 L 260.5 160 L 260.5 159 Z " /><path fill="rgb(254,242,241)" stroke="rgb(254,242,241)" stroke-width="1" opacity="1" d="M 375.5 167 L 374.5 169 L 375.5 167 Z " /><path fill="rgb(254,242,241)" stroke="rgb(254,242,241)" stroke-width="1" opacity="1" d="M 443.5 175 L 444 177.5 L 443 177.5 L 443.5 175 Z " /><path fill="rgb(254,242,241)" stroke="rgb(254,242,241)" stroke-width="1" opacity="1" d="M 195.5 180 L 194.5 182 L 195.5 180 Z " /><path fill="rgb(254,242,241)" stroke="rgb(254,242,241)" stroke-width="1" opacity="1" d="M 316.5 180 L 317.5 182 L 316.5 180 Z " /><path fill="rgb(254,242,241)" stroke="rgb(254,242,241)" stroke-width="1" opacity="1" d="M 102.5 185 L 103 187.5 L 102 187.5 L 102.5 185 Z " /><path fill="rgb(254,242,241)" stroke="rgb(254,242,241)" stroke-width="1" opacity="1" d="M 67.5 192 L 68 198.5 L 67 198.5 L 67.5 192 Z " /><path fill="rgb(254,242,241)" stroke="rgb(254,242,241)" stroke-width="1" opacity="1" d="M 181.5 194 L 180.5 196 L 181.5 194 Z " /><path fill="rgb(254,242,241)" stroke="rgb(254,242,241)" stroke-width="1" opacity="1" d="M 330.5 194 L 331.5 196 L 330.5 194 Z " /><path fill="rgb(254,242,241)" stroke="rgb(254,242,241)" stroke-width="1" opacity="1" d="M 444.5 194 L 445 202.5 L 444 202.5 L 444.5 194 Z " /><path fill="rgb(254,242,241)" stroke="rgb(254,242,241)" stroke-width="1" opacity="1" d="M 411.5 197 L 412 199.5 L 411 199.5 L 411.5 197 Z " /><path fill="rgb(254,242,241)" stroke="rgb(254,242,241)" stroke-width="1" opacity="1" d="M 101.5 202 L 102 206.5 L 101 206.5 L 101.5 202 Z " /><path fill="rgb(254,242,241)" stroke="rgb(254,242,241)" stroke-width="1" opacity="1" d="M 212.5 208 L 209.5 212 L 212.5 208 Z " /><path fill="rgb(254,242,241)" stroke="rgb(254,242,241)" stroke-width="1" opacity="1" d="M 206.5 215 L 205.5 217 L 206.5 215 Z " /><path fill="rgb(254,242,241)" stroke="rgb(254,242,241)" stroke-width="1" opacity="1" d="M 412.5 217 L 413 225.5 L 412 225.5 L 412.5 217 Z " /><path fill="rgb(254,242,241)" stroke="rgb(254,242,241)" stroke-width="1" opacity="1" d="M 159.5 248 L 160 250.5 L 159 250.5 L 159.5 248 Z " /><path fill="rgb(254,242,241)" stroke="rgb(254,242,241)" stroke-width="1" opacity="1" d="M 444.5 248 L 445 269.5 L 444 269.5 L 444.5 248 Z " /><path fill="rgb(254,242,241)" stroke="rgb(254,242,241)" stroke-width="1" opacity="1" d="M 352.5 250 L 353 253.5 L 352 253.5 L 352.5 250 Z " /><path fill="rgb(254,242,241)" stroke="rgb(254,242,241)" stroke-width="1" opacity="1" d="M 352.5 258 L 353 261.5 L 352 261.5 L 352.5 258 Z " /><path fill="rgb(254,242,241)" stroke="rgb(254,242,241)" stroke-width="1" opacity="1" d="M 412.5 258 L 413 269.5 L 412 269.5 L 412.5 258 Z " /><path fill="rgb(254,242,241)" stroke="rgb(254,242,241)" stroke-width="1" opacity="1" d="M 159.5 261 L 160 263.5 L 159 263.5 L 159.5 261 Z " /><path fill="rgb(254,242,241)" stroke="rgb(254,242,241)" stroke-width="1" opacity="1" d="M 205.5 295 L 206.5 297 L 205.5 295 Z " /><path fill="rgb(254,242,241)" stroke="rgb(254,242,241)" stroke-width="1" opacity="1" d="M 306.5 295 L 305.5 297 L 306.5 295 Z " /><path fill="rgb(254,242,241)" stroke="rgb(254,242,241)" stroke-width="1" opacity="1" d="M 411.5 297 L 412 301.5 L 411 301.5 L 411.5 297 Z " /><path fill="rgb(254,242,241)" stroke="rgb(254,242,241)" stroke-width="1" opacity="1" d="M 444.5 300 L 445 313.5 L 444 313.5 L 444.5 300 Z " /><path fill="rgb(254,242,241)" stroke="rgb(254,242,241)" stroke-width="1" opacity="1" d="M 210.5 301 L 212.5 304 L 210.5 301 Z " /><path fill="rgb(254,242,241)" stroke="rgb(254,242,241)" stroke-width="1" opacity="1" d="M 301.5 301 L 299.5 304 L 301.5 301 Z " /><path fill="rgb(254,242,241)" stroke="rgb(254,242,241)" stroke-width="1" opacity="1" d="M 67.5 309 L 68 316.5 L 67 316.5 L 67.5 309 Z " /><path fill="rgb(254,242,241)" stroke="rgb(254,242,241)" stroke-width="1" opacity="1" d="M 101.5 312 L 102 316.5 L 101 316.5 L 101.5 312 Z " /><path fill="rgb(254,242,241)" stroke="rgb(254,242,241)" stroke-width="1" opacity="1" d="M 331.5 316 L 330.5 318 L 331.5 316 Z " /><path fill="rgb(254,242,241)" stroke="rgb(254,242,241)" stroke-width="1" opacity="1" d="M 410.5 322 L 411 326.5 L 410 326.5 L 410.5 322 Z " /><path fill="rgb(254,242,241)" stroke="rgb(254,242,241)" stroke-width="1" opacity="1" d="M 186.5 323 L 188.5 326 L 186.5 323 Z " /><path fill="rgb(254,242,241)" stroke="rgb(254,242,241)" stroke-width="1" opacity="1" d="M 102.5 330 L 103 332.5 L 102 332.5 L 102.5 330 Z " /><path fill="rgb(254,242,241)" stroke="rgb(254,242,241)" stroke-width="1" opacity="1" d="M 317.5 330 L 316.5 332 L 317.5 330 Z " /><path fill="rgb(254,242,241)" stroke="rgb(254,242,241)" stroke-width="1" opacity="1" d="M 68.5 333 L 69 335.5 L 68 335.5 L 68.5 333 Z " /><path fill="rgb(254,242,241)" stroke="rgb(254,242,241)" stroke-width="1" opacity="1" d="M 443.5 333 L 444 335.5 L 443 335.5 L 443.5 333 Z " /><path fill="rgb(254,242,241)" stroke="rgb(254,242,241)" stroke-width="1" opacity="1" d="M 103.5 340 L 104 342.5 L 103 342.5 L 103.5 340 Z " /><path fill="rgb(254,242,241)" stroke="rgb(254,242,241)" stroke-width="1" opacity="1" d="M 69.5 344 L 70 346.5 L 69 346.5 L 69.5 344 Z " /><path fill="rgb(254,242,241)" stroke="rgb(254,242,241)" stroke-width="1" opacity="1" d="M 248.5 352 L 251 352.5 L 248.5 353 L 248.5 352 Z " /><path fill="rgb(254,242,241)" stroke="rgb(254,242,241)" stroke-width="1" opacity="1" d="M 261.5 352 L 264 352.5 L 261.5 353 L 261.5 352 Z " /><path fill="rgb(254,242,241)" stroke="rgb(254,242,241)" stroke-width="1" opacity="1" d="M 118.5 386 L 119.5 388 L 118.5 386 Z " /><path fill="rgb(254,242,241)" stroke="rgb(254,242,241)" stroke-width="1" opacity="1" d="M 392.5 386 L 386.5 393 L 392.5 386 Z " /><path fill="rgb(254,242,241)" stroke="rgb(254,242,241)" stroke-width="1" opacity="1" d="M 124.5 392 L 125.5 394 L 124.5 392 Z " /><path fill="rgb(254,242,241)" stroke="rgb(254,242,241)" stroke-width="1" opacity="1" d="M 419.5 406 L 418.5 408 L 419.5 406 Z " /><path fill="rgb(254,242,241)" stroke="rgb(254,242,241)" stroke-width="1" opacity="1" d="M 180.5 409 L 183 409.5 L 180.5 410 L 180.5 409 Z " /><path fill="rgb(254,242,241)" stroke="rgb(254,242,241)" stroke-width="1" opacity="1" d="M 95.5 410 L 101.5 417 L 95.5 410 Z " /><path fill="rgb(254,242,241)" stroke="rgb(254,242,241)" stroke-width="1" opacity="1" d="M 195.5 410 L 202 410.5 L 195.5 411 L 195.5 410 Z " /><path fill="rgb(254,242,241)" stroke="rgb(254,242,241)" stroke-width="1" opacity="1" d="M 330.5 410 L 333 410.5 L 330.5 411 L 330.5 410 Z " /><path fill="rgb(254,242,241)" stroke="rgb(254,242,241)" stroke-width="1" opacity="1" d="M 270.5 411 L 315 411.5 L 270.5 412 L 270.5 411 Z " /><path fill="rgb(254,242,241)" stroke="rgb(254,242,241)" stroke-width="1" opacity="1" d="M 407.5 418 L 406.5 420 L 407.5 418 Z " /><path fill="rgb(254,242,241)" stroke="rgb(254,242,241)" stroke-width="1" opacity="1" d="M 176.5 443 L 179 443.5 L 176.5 444 L 176.5 443 Z " /><path fill="rgb(254,242,241)" stroke="rgb(254,242,241)" stroke-width="1" opacity="1" d="M 334.5 443 L 337 443.5 L 334.5 444 L 334.5 443 Z " /><path fill="rgb(254,242,241)" stroke="rgb(254,242,241)" stroke-width="1" opacity="1" d="M 192.5 444 L 198 444.5 L 192.5 445 L 192.5 444 Z " /><path fill="rgb(254,242,241)" stroke="rgb(254,242,241)" stroke-width="1" opacity="1" d="M 316.5 444 L 321 444.5 L 316.5 445 L 316.5 444 Z " /><path fill="rgb(0,0,0)" stroke="rgb(0,0,0)" stroke-width="1" opacity="0" d="M 0 0 L 118 0.5 L 87.5 4 L 66.5 10 Q 45.4 18.9 31 34.5 Q 18.2 47.7 10 65.5 L 3 88.5 L 0.5 109 L 0 0 Z " /><path fill="rgb(0,0,0)" stroke="rgb(0,0,0)" stroke-width="1" opacity="0" d="M 404.5 0 L 512 0 L 512 105.5 L 511 105.5 L 511 98.5 L 509 88.5 L 502 66.5 Q 491.8 42.7 473.5 27 Q 458.8 14.2 438.5 7 L 418.5 2 L 404.5 1 L 404.5 0 Z " /><path fill="rgb(0,0,0)" stroke="rgb(0,0,0)" stroke-width="1" opacity="0" d="M 0.5 399 Q 5.2 454.8 36.5 484 Q 54.1 499.9 80.5 507 L 91.5 509 L 101.5 509 L 102.5 510 L 141 511.5 L 0 512 L 0.5 399 Z " /><path fill="rgb(0,0,0)" stroke="rgb(0,0,0)" stroke-width="1" opacity="0" d="M 511.5 406 L 512 512 L 371 511.5 L 409.5 510 L 410.5 509 L 420.5 509 L 431.5 507 Q 463.6 497.6 483 475.5 Q 506.8 450.3 511.5 406 Z " /><path fill="rgb(255,254,254)" stroke="rgb(255,254,254)" stroke-width="1" opacity="1" d="M 105.5 92 L 104.5 94 L 105.5 92 Z " /><path fill="rgb(255,254,254)" stroke="rgb(255,254,254)" stroke-width="1" opacity="1" d="M 385.5 118 L 386.5 120 L 385.5 118 Z " /><path fill="rgb(255,254,254)" stroke="rgb(255,254,254)" stroke-width="1" opacity="1" d="M 389.5 122 L 390.5 124 L 389.5 122 Z " /><path fill="rgb(255,254,254)" stroke="rgb(255,254,254)" stroke-width="1" opacity="1" d="M 371.5 138 L 373.5 141 L 371.5 138 Z " /><path fill="rgb(255,254,254)" stroke="rgb(255,254,254)" stroke-width="1" opacity="1" d="M 371.5 171 L 370.5 173 L 371.5 171 Z " /><path fill="rgb(255,254,254)" stroke="rgb(255,254,254)" stroke-width="1" opacity="1" d="M 318.5 182 L 319.5 184 L 318.5 182 Z " /><path fill="rgb(255,254,254)" stroke="rgb(255,254,254)" stroke-width="1" opacity="1" d="M 328.5 192 L 329.5 194 L 328.5 192 Z " /><path fill="rgb(255,254,254)" stroke="rgb(255,254,254)" stroke-width="1" opacity="1" d="M 214.5 206 L 213.5 208 L 214.5 206 Z " /><path fill="rgb(255,254,254)" stroke="rgb(255,254,254)" stroke-width="1" opacity="1" d="M 298.5 207 L 303.5 213 L 298.5 207 Z " /><path fill="rgb(255,254,254)" stroke="rgb(255,254,254)" stroke-width="1" opacity="1" d="M 444.5 238 L 445 247.5 L 444 247.5 L 444.5 238 Z " /><path fill="rgb(255,254,254)" stroke="rgb(255,254,254)" stroke-width="1" opacity="1" d="M 352.5 254 L 353 257.5 L 352 257.5 L 352.5 254 Z " /><path fill="rgb(255,254,254)" stroke="rgb(255,254,254)" stroke-width="1" opacity="1" d="M 444.5 270 L 445 287.5 L 444 287.5 L 444.5 270 Z " /><path fill="rgb(255,254,254)" stroke="rgb(255,254,254)" stroke-width="1" opacity="1" d="M 444.5 296 L 445 299.5 L 444 299.5 L 444.5 296 Z " /><path fill="rgb(255,254,254)" stroke="rgb(255,254,254)" stroke-width="1" opacity="1" d="M 208.5 299 L 209.5 301 L 208.5 299 Z " /><path fill="rgb(255,254,254)" stroke="rgb(255,254,254)" stroke-width="1" opacity="1" d="M 303.5 299 L 302.5 301 L 303.5 299 Z " /><path fill="rgb(255,254,254)" stroke="rgb(255,254,254)" stroke-width="1" opacity="1" d="M 213.5 304 L 214.5 306 L 213.5 304 Z " /><path fill="rgb(255,254,254)" stroke="rgb(255,254,254)" stroke-width="1" opacity="1" d="M 67.5 306 L 68 308.5 L 67 308.5 L 67.5 306 Z " /><path fill="rgb(255,254,254)" stroke="rgb(255,254,254)" stroke-width="1" opacity="1" d="M 181.5 317 L 182.5 319 L 181.5 317 Z " /><path fill="rgb(255,254,254)" stroke="rgb(255,254,254)" stroke-width="1" opacity="1" d="M 329.5 318 L 328.5 320 L 329.5 318 Z " /><path fill="rgb(255,254,254)" stroke="rgb(255,254,254)" stroke-width="1" opacity="1" d="M 319.5 328 L 318.5 330 L 319.5 328 Z " /><path fill="rgb(255,254,254)" stroke="rgb(255,254,254)" stroke-width="1" opacity="1" d="M 193.5 329 L 194.5 331 L 193.5 329 Z " /><path fill="rgb(255,254,254)" stroke="rgb(255,254,254)" stroke-width="1" opacity="1" d="M 104.5 418 L 105.5 420 L 104.5 418 Z " /><path fill="rgb(254,147,73)" stroke="rgb(254,147,73)" stroke-width="1" opacity="0.996078431372549" d="M 105.5 91 L 104.5 93 L 105.5 91 Z " /><path fill="rgb(254,147,73)" stroke="rgb(254,147,73)" stroke-width="1" opacity="0.996078431372549" d="M 1.5 100 L 65 173.5 L 68 177.5 L 68 181.5 L 67 182.5 L 67 280.5 L 66 281.5 L 66 296.5 L 67 297.5 L 67 331.5 L 68 332.5 L 68 340.5 L 61 334.5 L 0 263.5 L 0 111.5 L 1 108.5 L 1.5 100 Z " /><path fill="rgb(254,147,73)" stroke="rgb(254,147,73)" stroke-width="1" opacity="0.996078431372549" d="M 200.5 101 L 208 101.5 L 200.5 102 L 200.5 101 Z " /><path fill="rgb(254,147,73)" stroke="rgb(254,147,73)" stroke-width="1" opacity="0.996078431372549" d="M 92.5 104 L 91.5 106 L 92.5 104 Z " /><path fill="rgb(254,147,73)" stroke="rgb(254,147,73)" stroke-width="1" opacity="0.996078431372549" d="M 68.5 166 L 69 168.5 L 68 168.5 L 68.5 166 Z " /><path fill="rgb(254,147,73)" stroke="rgb(254,147,73)" stroke-width="1" opacity="0.996078431372549" d="M 104.5 171 L 105 173.5 L 104 173.5 L 104.5 171 Z " /><path fill="rgb(254,147,73)" stroke="rgb(254,147,73)" stroke-width="1" opacity="0.996078431372549" d="M 103.5 181 L 104 183.5 L 103 183.5 L 103.5 181 Z " /><path fill="rgb(254,147,73)" stroke="rgb(254,147,73)" stroke-width="1" opacity="0.996078431372549" d="M 193.5 181 L 192.5 183 L 193.5 181 Z " /><path fill="rgb(254,147,73)" stroke="rgb(254,147,73)" stroke-width="1" opacity="0.996078431372549" d="M 182.5 192 L 180.5 195 L 182.5 192 Z " /><path fill="rgb(254,147,73)" stroke="rgb(254,147,73)" stroke-width="1" opacity="0.996078431372549" d="M 102.5 194 L 103 200.5 L 102 200.5 L 102.5 194 Z " /><path fill="rgb(254,147,73)" stroke="rgb(254,147,73)" stroke-width="1" opacity="0.996078431372549" d="M 214.5 207 L 213.5 209 L 214.5 207 Z " /><path fill="rgb(254,147,73)" stroke="rgb(254,147,73)" stroke-width="1" opacity="0.996078431372549" d="M 298.5 208 L 302.5 213 L 298.5 208 Z " /><path fill="rgb(254,147,73)" stroke="rgb(254,147,73)" stroke-width="1" opacity="0.996078431372549" d="M 210.5 211 L 208.5 214 L 210.5 211 Z " /><path fill="rgb(254,147,73)" stroke="rgb(254,147,73)" stroke-width="1" opacity="0.996078431372549" d="M 102.5 217 L 162.5 287 L 164 286.5 Q 161.5 288 165 289.5 Q 173.9 315.6 193.5 331 L 214 343.5 L 212 344.5 L 270 410.5 L 225.5 411 L 224.5 410 L 177.5 409 L 176.5 408 L 168.5 408 L 167.5 407 L 156.5 406 L 139.5 401 Q 128.5 396.5 121 388.5 Q 113.8 380.7 110 369.5 L 104 343.5 L 103 321.5 L 102 320.5 L 102 288.5 L 101 287.5 L 101 223.5 L 102.5 217 Z " /><path fill="rgb(254,147,73)" stroke="rgb(254,147,73)" stroke-width="1" opacity="0.996078431372549" d="M 194.5 244 L 195 246.5 L 194 246.5 L 194.5 244 Z " /><path fill="rgb(254,147,73)" stroke="rgb(254,147,73)" stroke-width="1" opacity="0.996078431372549" d="M 158.5 253 L 159 259.5 L 158 259.5 L 158.5 253 Z " /><path fill="rgb(254,147,73)" stroke="rgb(254,147,73)" stroke-width="1" opacity="0.996078431372549" d="M 159.5 268 L 160 270.5 L 159 270.5 L 159.5 268 Z " /><path fill="rgb(254,147,73)" stroke="rgb(254,147,73)" stroke-width="1" opacity="0.996078431372549" d="M 203.5 291 L 204.5 293 L 203.5 291 Z " /><path fill="rgb(254,147,73)" stroke="rgb(254,147,73)" stroke-width="1" opacity="0.996078431372549" d="M 205.5 294 L 206.5 296 L 205.5 294 Z " /><path fill="rgb(254,147,73)" stroke="rgb(254,147,73)" stroke-width="1" opacity="0.996078431372549" d="M 209.5 299 L 214.5 305 L 209.5 299 Z " /><path fill="rgb(254,147,73)" stroke="rgb(254,147,73)" stroke-width="1" opacity="0.996078431372549" d="M 302.5 299 L 297.5 305 L 302.5 299 Z " /><path fill="rgb(254,147,73)" stroke="rgb(254,147,73)" stroke-width="1" opacity="0.996078431372549" d="M 248.5 318 L 251 318.5 L 248.5 319 L 248.5 318 Z " /><path fill="rgb(254,147,73)" stroke="rgb(254,147,73)" stroke-width="1" opacity="0.996078431372549" d="M 261.5 318 L 264 318.5 L 261.5 319 L 261.5 318 Z " /><path fill="rgb(254,147,73)" stroke="rgb(254,147,73)" stroke-width="1" opacity="0.996078431372549" d="M 330.5 318 L 329.5 320 L 330.5 318 Z " /><path fill="rgb(254,147,73)" stroke="rgb(254,147,73)" stroke-width="1" opacity="0.996078431372549" d="M 319.5 329 L 318.5 331 L 319.5 329 Z " /><path fill="rgb(254,147,73)" stroke="rgb(254,147,73)" stroke-width="1" opacity="0.996078431372549" d="M 267.5 352 L 270 352.5 L 267.5 353 L 267.5 352 Z " /><path fill="rgb(254,147,73)" stroke="rgb(254,147,73)" stroke-width="1" opacity="0.996078431372549" d="M 254.5 353 L 258 353.5 L 254.5 354 L 254.5 353 Z " /><path fill="rgb(254,147,73)" stroke="rgb(254,147,73)" stroke-width="1" opacity="0.996078431372549" d="M 418.5 408 L 417.5 410 L 418.5 408 Z " /><path fill="rgb(254,147,73)" stroke="rgb(254,147,73)" stroke-width="1" opacity="0.996078431372549" d="M 317.5 410 L 324 410.5 L 317.5 411 L 317.5 410 Z " /><path fill="rgb(254,147,73)" stroke="rgb(254,147,73)" stroke-width="1" opacity="0.996078431372549" d="M 154.5 441 L 161.5 443 L 179.5 444 L 180.5 445 L 235.5 446 L 236.5 445 L 313.5 445 L 313.5 446 L 301 446.5 L 356.5 511 L 359 511.5 L 356.5 512 L 354.5 512 L 215.5 512 L 209 505.5 L 158 446.5 L 154.5 441 Z " /><path fill="rgb(254,147,73)" stroke="rgb(254,147,73)" stroke-width="1" opacity="0.996078431372549" d="M 340.5 443 L 343 443.5 L 340.5 444 L 340.5 443 Z " /><path fill="rgb(254,147,73)" stroke="rgb(254,147,73)" stroke-width="1" opacity="0.996078431372549" d="M 328.5 444 L 332 444.5 L 328.5 445 L 328.5 444 Z " /><path fill="rgb(254,101,65)" stroke="rgb(254,101,65)" stroke-width="1" opacity="0.996078431372549" d="M 76.5 7 L 77 9.5 L 134 75.5 Q 118 81.5 105.5 91 L 91 105.5 Q 80.3 119.3 74 137.5 L 69 159.5 L 67.5 177 L 2 101.5 L 2 94.5 L 6 76.5 L 14 57.5 Q 24.8 38.3 41.5 25 Q 55.6 12.6 76.5 7 Z " /><path fill="rgb(254,101,65)" stroke="rgb(254,101,65)" stroke-width="1" opacity="0.996078431372549" d="M 156.5 105 Q 160.3 104.3 161 106.5 L 212 165.5 L 213 169 Q 193.1 177.7 180 194.5 Q 170 206.5 164 222.5 L 159 242.5 L 158 259.5 L 159 260.5 L 159 270.5 L 161 280.5 L 164 287.5 L 161 285.5 L 103 218.5 L 102 216.5 L 102 201.5 L 103 200.5 L 103 184.5 L 104 183.5 L 105 166.5 L 109 147.5 Q 114.1 128.1 127.5 117 Q 139.1 108.1 156.5 105 Z " /><path fill="rgb(254,101,65)" stroke="rgb(254,101,65)" stroke-width="1" opacity="0.996078431372549" d="M 234.5 196 L 237.5 196 L 244 202.5 L 313 283.5 Q 306.5 298 294.5 307 Q 285.8 313.8 273.5 317 L 261.5 318 L 260.5 319 L 251.5 319 L 250.5 318 L 238.5 317 L 223.5 311 L 207 296.5 L 196 274.5 L 194 264.5 L 194 247.5 L 199 228.5 Q 204.2 217.2 212.5 209 Q 221.4 200.4 234.5 196 Z " /><path fill="rgb(254,101,65)" stroke="rgb(254,101,65)" stroke-width="1" opacity="0.996078431372549" d="M 336.5 311 L 341 314.5 L 396.5 379 L 398 378.5 L 386.5 392 L 367.5 403 L 342.5 409 L 317.5 410 L 316.5 411 L 270.5 411 L 212 344.5 L 214.5 344 L 219.5 347 L 236.5 352 L 257.5 354 L 258.5 353 L 275.5 352 L 296.5 345 Q 317.1 335.1 331 318.5 L 336.5 311 Z " /><path fill="rgb(254,101,65)" stroke="rgb(254,101,65)" stroke-width="1" opacity="0.996078431372549" d="M 419 407 L 425 411.5 L 481 476.5 L 477.5 481 L 475 482.5 Q 475.8 484.8 473.5 484 Q 458.1 499.1 434.5 506 L 420.5 509 L 394.5 510 L 393.5 511 L 371.5 511 L 370.5 512 L 368.5 512 L 356.5 511 L 355 511.5 Q 357.5 510 354 508.5 L 301 446.5 L 342.5 444 L 372.5 438 Q 401.7 429.2 419 408.5 L 419 407 Z " /><path fill="rgb(255,255,255)" stroke="rgb(255,255,255)" stroke-width="1" opacity="1" d="M 199.5 67 L 316.5 67 L 317.5 68 L 335.5 68 L 336.5 69 L 352.5 70 L 379.5 77 L 395.5 85 Q 409 93.5 419 105.5 Q 435.3 124.7 441 154.5 L 442 167.5 L 443 168.5 L 443 178.5 L 444 179.5 L 445 237.5 L 444 238.5 L 444 287.5 Q 446.8 289.3 445 295.5 L 444 296.5 L 444 332.5 L 443 333.5 L 443 343.5 L 437 373.5 Q 428.4 400.4 409.5 417 Q 396.4 428.4 378.5 435 L 365.5 439 L 343.5 443 L 315.5 444 L 314.5 445 L 198.5 445 L 197.5 444 L 180.5 444 L 179.5 443 L 162.5 442 L 146.5 439 L 130.5 434 Q 107.6 424.9 93 407.5 L 79 384.5 L 74 370.5 L 70 350.5 L 69 332.5 L 68 331.5 L 68 306.5 L 67 305.5 L 67 200.5 L 68 199.5 L 68 177.5 L 69 176.5 L 70 159.5 L 77 132.5 Q 86 109 103.5 94 Q 119.3 80.3 142.5 74 L 169.5 69 L 198.5 68 L 199.5 67 Z M 250 100 L 249 101 L 185 101 L 184 102 L 164 103 L 140 109 L 128 116 Q 113 127 108 148 L 104 167 L 103 184 L 102 185 L 102 201 L 101 202 L 101 319 L 102 320 L 102 334 L 103 335 L 105 356 L 108 368 L 117 386 Q 124 395 135 400 L 157 407 L 169 408 L 170 409 L 179 409 L 180 410 L 195 410 L 196 411 L 270 411 L 271 412 L 315 412 L 316 411 L 333 411 L 334 410 L 349 409 L 373 402 L 386 394 Q 403 380 408 355 L 409 344 L 410 343 L 410 329 L 411 328 L 412 273 L 413 272 L 413 217 L 412 216 L 412 197 L 411 196 L 411 186 L 410 185 L 409 170 L 402 143 L 391 124 Q 383 114 372 109 L 364 106 L 345 102 L 319 101 L 318 100 L 250 100 Z " /><path fill="rgb(255,255,255)" stroke="rgb(255,255,255)" stroke-width="1" opacity="1" d="M 352.5 133 L 364.5 134 Q 372 137 376 143.5 L 379 151.5 L 379 159.5 L 373 171 L 361.5 177 L 351.5 177 Q 343.5 174.5 339 168.5 Q 333.3 163.2 335 150.5 Q 337.3 142.8 342.5 138 L 352.5 133 Z " /><path fill="rgb(255,255,255)" stroke="rgb(255,255,255)" stroke-width="1" opacity="1" d="M 252.5 159 L 275.5 161 L 296.5 168 Q 315 177 328 191.5 Q 343.3 207.7 350 232.5 L 352 242.5 L 352 269.5 L 350 279.5 L 342 300.5 Q 333.4 316.4 320.5 328 Q 306.5 341 286.5 348 L 269.5 352 L 252.5 353 L 251.5 352 L 236.5 351 L 215.5 344 Q 196.3 334.7 183 319.5 Q 171.7 306.8 165 289.5 L 160 269.5 L 159 252.5 L 160 251.5 L 161 236.5 L 168 215.5 Q 177.3 196.3 192.5 183 Q 205.2 171.7 222.5 165 L 236.5 161 L 251.5 160 L 252.5 159 Z M 244 193 Q 226 196 215 206 L 201 223 L 195 238 L 193 248 L 193 265 L 195 275 Q 199 289 208 300 Q 216 310 230 315 L 244 319 L 255 319 L 256 320 L 258 319 L 269 319 L 283 315 L 299 305 Q 307 297 313 286 L 317 275 L 319 264 L 319 249 L 317 238 Q 313 223 304 213 Q 294 200 277 195 L 269 193 L 244 193 Z " /><path fill="rgb(242,77,86)" stroke="rgb(242,77,86)" stroke-width="1" opacity="0.996078431372549" d="M 118.5 0 L 219.5 0 L 223 3.5 L 276 65.5 L 268.5 67 L 232.5 67 L 231.5 66 L 217.5 66 L 216.5 67 L 170.5 68 L 169.5 69 L 162.5 69 L 146.5 72 L 134.5 76 L 75 7.5 L 77.5 7 L 93.5 3 L 106.5 2 L 107.5 1 L 117.5 1 L 118.5 0 Z " /><path fill="rgb(242,77,86)" stroke="rgb(242,77,86)" stroke-width="1" opacity="0.996078431372549" d="M 35.5 30 L 31.5 35 L 35.5 30 Z " /><path fill="rgb(242,77,86)" stroke="rgb(242,77,86)" stroke-width="1" opacity="0.996078431372549" d="M 208.5 101 L 306.5 101 L 313 107.5 L 340 139.5 Q 331.9 144.9 334 160.5 Q 336.4 169.5 343.5 174 Q 349.1 179.4 361.5 178 L 371 174 L 371 175.5 L 412 222.5 L 412 277.5 L 411 278.5 L 411 309.5 L 410 310.5 L 409 343.5 L 404 365.5 L 399 376.5 L 396.5 379 L 337 309.5 Q 346.9 296.9 351 278.5 L 353 267.5 L 353 244.5 L 350 229.5 L 343 211.5 Q 333.5 193.5 318.5 181 Q 303.8 168.2 282.5 162 L 267.5 159 L 243.5 159 L 228.5 162 L 213.5 168 L 160 105.5 L 170.5 103 L 207.5 102 L 208.5 101 Z " /><path fill="rgb(242,77,86)" stroke="rgb(242,77,86)" stroke-width="1" opacity="0.996078431372549" d="M 252.5 193 L 268.5 194 L 282.5 198 Q 297 204.5 306 216.5 Q 319.6 232.9 318 264.5 L 316 274.5 L 312.5 282 L 238 196.5 L 238 195 L 251.5 194 L 252.5 193 Z " /><path fill="rgb(242,77,86)" stroke="rgb(242,77,86)" stroke-width="1" opacity="0.996078431372549" d="M 445.5 261 L 512 337.5 L 512 405.5 L 507 431.5 L 501 447.5 Q 493.3 465.3 480.5 478 L 481 476.5 L 476 471.5 L 420 406.5 L 433 386.5 L 437 376.5 L 442 356.5 L 443 342.5 L 444 341.5 L 444 330.5 L 445 329.5 L 445.5 261 Z " /><path fill="rgb(242,77,86)" stroke="rgb(242,77,86)" stroke-width="1" opacity="0.996078431372549" d="M 476.5 481 L 475.5 483 L 476.5 481 Z " /><path fill="rgb(255,192,80)" stroke="rgb(255,192,80)" stroke-width="1" opacity="0.9921568627450981" d="M 101.5 220 L 102 222.5 L 101 222.5 L 101.5 220 Z " /><path fill="rgb(255,192,80)" stroke="rgb(255,192,80)" stroke-width="1" opacity="0.9921568627450981" d="M 0.5 264 L 67.5 341 L 69 341.5 L 69 348.5 L 74 373.5 L 79 386.5 Q 88.3 406.7 104.5 420 Q 115 428.5 128.5 434 L 143.5 439 L 151.5 440 L 154.5 442 L 156.5 441 L 156.5 442 L 155 442.5 L 215 511.5 L 141.5 512 L 140.5 511 L 102.5 510 L 101.5 509 L 91.5 509 L 80.5 507 Q 49 498.5 30 477.5 Q 18.9 465.1 12 448.5 L 6 431.5 L 1 406.5 Q 2.8 400.3 0 398.5 L 0.5 264 Z " /><path fill="rgb(255,192,80)" stroke="rgb(255,192,80)" stroke-width="1" opacity="0.9921568627450981" d="M 66.5 281 L 67 296.5 L 66 296.5 L 66.5 281 Z " /><path fill="rgb(255,192,80)" stroke="rgb(255,192,80)" stroke-width="1" opacity="0.9921568627450981" d="M 101.5 288 L 102 295.5 L 101 295.5 L 101.5 288 Z " /><path fill="rgb(255,192,80)" stroke="rgb(255,192,80)" stroke-width="1" opacity="0.9921568627450981" d="M 102.5 321 L 103 324.5 L 102 324.5 L 102.5 321 Z " /><path fill="rgb(255,192,80)" stroke="rgb(255,192,80)" stroke-width="1" opacity="0.9921568627450981" d="M 67.5 327 L 68 331.5 L 67 331.5 L 67.5 327 Z " /><path fill="rgb(255,192,80)" stroke="rgb(255,192,80)" stroke-width="1" opacity="0.9921568627450981" d="M 118.5 385 L 120.5 388 L 118.5 385 Z " /><path fill="rgb(255,192,80)" stroke="rgb(255,192,80)" stroke-width="1" opacity="0.9921568627450981" d="M 124.5 391 L 126.5 394 L 124.5 391 Z " /><path fill="rgb(255,192,80)" stroke="rgb(255,192,80)" stroke-width="1" opacity="0.9921568627450981" d="M 128.5 394 L 129.5 396 L 128.5 394 Z " /><path fill="rgb(255,192,80)" stroke="rgb(255,192,80)" stroke-width="1" opacity="0.9921568627450981" d="M 188.5 409 L 191 409.5 L 188.5 410 L 188.5 409 Z " /><path fill="rgb(255,192,80)" stroke="rgb(255,192,80)" stroke-width="1" opacity="0.9921568627450981" d="M 218.5 410 L 225 410.5 L 218.5 411 L 218.5 410 Z " /><path fill="rgb(255,192,80)" stroke="rgb(255,192,80)" stroke-width="1" opacity="0.9921568627450981" d="M 161.5 442 L 164 442.5 L 161.5 443 L 161.5 442 Z " /><path fill="rgb(255,192,80)" stroke="rgb(255,192,80)" stroke-width="1" opacity="0.9921568627450981" d="M 169.5 443 L 172 443.5 L 169.5 444 L 169.5 443 Z " /><path fill="rgb(255,192,80)" stroke="rgb(255,192,80)" stroke-width="1" opacity="0.9921568627450981" d="M 180.5 444 L 184 444.5 L 180.5 445 L 180.5 444 Z " /><path fill="rgb(255,192,80)" stroke="rgb(255,192,80)" stroke-width="1" opacity="0.9921568627450981" d="M 205.5 445 L 236 445.5 L 205.5 446 L 205.5 445 Z " /><path fill="rgb(250,192,187)" stroke="rgb(250,192,187)" stroke-width="1" opacity="1" d="M 185.5 67 L 194 67.5 L 185.5 68 L 185.5 67 Z " /><path fill="rgb(250,192,187)" stroke="rgb(250,192,187)" stroke-width="1" opacity="1" d="M 323.5 67 L 332 67.5 L 323.5 68 L 323.5 67 Z " /><path fill="rgb(250,192,187)" stroke="rgb(250,192,187)" stroke-width="1" opacity="1" d="M 172.5 68 L 177 68.5 L 172.5 69 L 172.5 68 Z " /><path fill="rgb(250,192,187)" stroke="rgb(250,192,187)" stroke-width="1" opacity="1" d="M 339.5 68 L 343 68.5 L 339.5 69 L 339.5 68 Z " /><path fill="rgb(250,192,187)" stroke="rgb(250,192,187)" stroke-width="1" opacity="1" d="M 164.5 69 L 167 69.5 L 164.5 70 L 164.5 69 Z " /><path fill="rgb(250,192,187)" stroke="rgb(250,192,187)" stroke-width="1" opacity="1" d="M 348.5 69 L 351 69.5 L 348.5 70 L 348.5 69 Z " /><path fill="rgb(250,192,187)" stroke="rgb(250,192,187)" stroke-width="1" opacity="1" d="M 354.5 70 L 357 70.5 L 354.5 71 L 354.5 70 Z " /><path fill="rgb(250,192,187)" stroke="rgb(250,192,187)" stroke-width="1" opacity="1" d="M 395.5 84 L 396.5 86 L 395.5 84 Z " /><path fill="rgb(250,192,187)" stroke="rgb(250,192,187)" stroke-width="1" opacity="1" d="M 398.5 86 L 399.5 88 L 398.5 86 Z " /><path fill="rgb(250,192,187)" stroke="rgb(250,192,187)" stroke-width="1" opacity="1" d="M 108.5 89 L 107.5 91 L 108.5 89 Z " /><path fill="rgb(250,192,187)" stroke="rgb(250,192,187)" stroke-width="1" opacity="1" d="M 406.5 92 L 408.5 95 L 406.5 92 Z " /><path fill="rgb(250,192,187)" stroke="rgb(250,192,187)" stroke-width="1" opacity="1" d="M 103.5 93 L 102.5 95 L 103.5 93 Z " /><path fill="rgb(250,192,187)" stroke="rgb(250,192,187)" stroke-width="1" opacity="1" d="M 278.5 100 L 309 100.5 L 278.5 101 L 278.5 100 Z " /><path fill="rgb(250,192,187)" stroke="rgb(250,192,187)" stroke-width="1" opacity="1" d="M 95.5 101 L 93.5 104 L 95.5 101 Z " /><path fill="rgb(250,192,187)" stroke="rgb(250,192,187)" stroke-width="1" opacity="1" d="M 188.5 101 L 200 101.5 L 188.5 102 L 188.5 101 Z " /><path fill="rgb(250,192,187)" stroke="rgb(250,192,187)" stroke-width="1" opacity="1" d="M 326.5 101 L 332 101.5 L 326.5 102 L 326.5 101 Z " /><path fill="rgb(250,192,187)" stroke="rgb(250,192,187)" stroke-width="1" opacity="1" d="M 174.5 102 L 178 102.5 L 174.5 103 L 174.5 102 Z " /><path fill="rgb(250,192,187)" stroke="rgb(250,192,187)" stroke-width="1" opacity="1" d="M 339.5 102 L 343 102.5 L 339.5 103 L 339.5 102 Z " /><path fill="rgb(250,192,187)" stroke="rgb(250,192,187)" stroke-width="1" opacity="1" d="M 165.5 103 L 168 103.5 L 165.5 104 L 165.5 103 Z " /><path fill="rgb(250,192,187)" stroke="rgb(250,192,187)" stroke-width="1" opacity="1" d="M 346.5 103 L 349 103.5 L 346.5 104 L 346.5 103 Z " /><path fill="rgb(250,192,187)" stroke="rgb(250,192,187)" stroke-width="1" opacity="1" d="M 417.5 103 L 419.5 106 L 417.5 103 Z " /><path fill="rgb(250,192,187)" stroke="rgb(250,192,187)" stroke-width="1" opacity="1" d="M 158.5 104 L 161 104.5 L 158.5 105 L 158.5 104 Z " /><path fill="rgb(250,192,187)" stroke="rgb(250,192,187)" stroke-width="1" opacity="1" d="M 90.5 107 L 89.5 109 L 90.5 107 Z " /><path fill="rgb(250,192,187)" stroke="rgb(250,192,187)" stroke-width="1" opacity="1" d="M 376.5 112 L 377.5 114 L 376.5 112 Z " /><path fill="rgb(250,192,187)" stroke="rgb(250,192,187)" stroke-width="1" opacity="1" d="M 424.5 112 L 425.5 114 L 424.5 112 Z " /><path fill="rgb(250,192,187)" stroke="rgb(250,192,187)" stroke-width="1" opacity="1" d="M 382.5 116 L 384.5 119 L 382.5 116 Z " /><path fill="rgb(250,192,187)" stroke="rgb(250,192,187)" stroke-width="1" opacity="1" d="M 125.5 118 L 121.5 123 L 125.5 118 Z " /><path fill="rgb(250,192,187)" stroke="rgb(250,192,187)" stroke-width="1" opacity="1" d="M 389.5 123 L 391.5 126 L 389.5 123 Z " /><path fill="rgb(250,192,187)" stroke="rgb(250,192,187)" stroke-width="1" opacity="1" d="M 353.5 132 L 360 132.5 L 353.5 133 L 353.5 132 Z " /><path fill="rgb(250,192,187)" stroke="rgb(250,192,187)" stroke-width="1" opacity="1" d="M 368.5 135 L 369.5 137 L 368.5 135 Z " /><path fill="rgb(250,192,187)" stroke="rgb(250,192,187)" stroke-width="1" opacity="1" d="M 342.5 137 L 339.5 141 L 342.5 137 Z " /><path fill="rgb(250,192,187)" stroke="rgb(250,192,187)" stroke-width="1" opacity="1" d="M 372.5 138 L 373.5 140 L 372.5 138 Z " /><path fill="rgb(250,192,187)" stroke="rgb(250,192,187)" stroke-width="1" opacity="1" d="M 375.5 142 L 376.5 144 L 375.5 142 Z " /><path fill="rgb(250,192,187)" stroke="rgb(250,192,187)" stroke-width="1" opacity="1" d="M 334.5 150 L 335 153.5 L 334 153.5 L 334.5 150 Z " /><path fill="rgb(250,192,187)" stroke="rgb(250,192,187)" stroke-width="1" opacity="1" d="M 440.5 150 L 441 152.5 L 440 152.5 L 440.5 150 Z " /><path fill="rgb(250,192,187)" stroke="rgb(250,192,187)" stroke-width="1" opacity="1" d="M 379.5 152 L 380 157.5 L 379 157.5 L 379.5 152 Z " /><path fill="rgb(250,192,187)" stroke="rgb(250,192,187)" stroke-width="1" opacity="1" d="M 334.5 156 L 335 159.5 L 334 159.5 L 334.5 156 Z " /><path fill="rgb(250,192,187)" stroke="rgb(250,192,187)" stroke-width="1" opacity="1" d="M 441.5 156 L 442 158.5 L 441 158.5 L 441.5 156 Z " /><path fill="rgb(250,192,187)" stroke="rgb(250,192,187)" stroke-width="1" opacity="1" d="M 245.5 159 L 249 159.5 L 245.5 160 L 245.5 159 Z " /><path fill="rgb(250,192,187)" stroke="rgb(250,192,187)" stroke-width="1" opacity="1" d="M 263.5 159 L 267 159.5 L 263.5 160 L 263.5 159 Z " /><path fill="rgb(250,192,187)" stroke="rgb(250,192,187)" stroke-width="1" opacity="1" d="M 69.5 161 L 70 163.5 L 69 163.5 L 69.5 161 Z " /><path fill="rgb(250,192,187)" stroke="rgb(250,192,187)" stroke-width="1" opacity="1" d="M 442.5 162 L 443 165.5 L 442 165.5 L 442.5 162 Z " /><path fill="rgb(250,192,187)" stroke="rgb(250,192,187)" stroke-width="1" opacity="1" d="M 407.5 165 L 408 167.5 L 407 167.5 L 407.5 165 Z " /><path fill="rgb(250,192,187)" stroke="rgb(250,192,187)" stroke-width="1" opacity="1" d="M 104.5 168 L 105 170.5 L 104 170.5 L 104.5 168 Z " /><path fill="rgb(250,192,187)" stroke="rgb(250,192,187)" stroke-width="1" opacity="1" d="M 338.5 168 L 343.5 174 L 338.5 168 Z " /><path fill="rgb(250,192,187)" stroke="rgb(250,192,187)" stroke-width="1" opacity="1" d="M 68.5 169 L 69 173.5 L 68 173.5 L 68.5 169 Z " /><path fill="rgb(250,192,187)" stroke="rgb(250,192,187)" stroke-width="1" opacity="1" d="M 374.5 169 L 371.5 173 L 374.5 169 Z " /><path fill="rgb(250,192,187)" stroke="rgb(250,192,187)" stroke-width="1" opacity="1" d="M 443.5 170 L 444 174.5 L 443 174.5 L 443.5 170 Z " /><path fill="rgb(250,192,187)" stroke="rgb(250,192,187)" stroke-width="1" opacity="1" d="M 408.5 171 L 409 173.5 L 408 173.5 L 408.5 171 Z " /><path fill="rgb(250,192,187)" stroke="rgb(250,192,187)" stroke-width="1" opacity="1" d="M 103.5 177 L 104 180.5 L 103 180.5 L 103.5 177 Z " /><path fill="rgb(250,192,187)" stroke="rgb(250,192,187)" stroke-width="1" opacity="1" d="M 352.5 177 L 361 177.5 L 352.5 178 L 352.5 177 Z " /><path fill="rgb(250,192,187)" stroke="rgb(250,192,187)" stroke-width="1" opacity="1" d="M 197.5 178 L 196.5 180 L 197.5 178 Z " /><path fill="rgb(250,192,187)" stroke="rgb(250,192,187)" stroke-width="1" opacity="1" d="M 314.5 178 L 315.5 180 L 314.5 178 Z " /><path fill="rgb(250,192,187)" stroke="rgb(250,192,187)" stroke-width="1" opacity="1" d="M 409.5 178 L 410 181.5 L 409 181.5 L 409.5 178 Z " /><path fill="rgb(250,192,187)" stroke="rgb(250,192,187)" stroke-width="1" opacity="1" d="M 319.5 182 L 329.5 193 L 319.5 182 Z " /><path fill="rgb(250,192,187)" stroke="rgb(250,192,187)" stroke-width="1" opacity="1" d="M 67.5 183 L 68 191.5 L 67 191.5 L 67.5 183 Z " /><path fill="rgb(250,192,187)" stroke="rgb(250,192,187)" stroke-width="1" opacity="1" d="M 191.5 183 L 183.5 192 L 191.5 183 Z " /><path fill="rgb(250,192,187)" stroke="rgb(250,192,187)" stroke-width="1" opacity="1" d="M 444.5 183 L 445 193.5 L 444 193.5 L 444.5 183 Z " /><path fill="rgb(250,192,187)" stroke="rgb(250,192,187)" stroke-width="1" opacity="1" d="M 410.5 187 L 411 191.5 L 410 191.5 L 410.5 187 Z " /><path fill="rgb(250,192,187)" stroke="rgb(250,192,187)" stroke-width="1" opacity="1" d="M 102.5 188 L 103 193.5 L 102 193.5 L 102.5 188 Z " /><path fill="rgb(250,192,187)" stroke="rgb(250,192,187)" stroke-width="1" opacity="1" d="M 245.5 193 L 248 193.5 L 245.5 194 L 245.5 193 Z " /><path fill="rgb(250,192,187)" stroke="rgb(250,192,187)" stroke-width="1" opacity="1" d="M 264.5 193 L 267 193.5 L 264.5 194 L 264.5 193 Z " /><path fill="rgb(250,192,187)" stroke="rgb(250,192,187)" stroke-width="1" opacity="1" d="M 179.5 196 L 178.5 198 L 179.5 196 Z " /><path fill="rgb(250,192,187)" stroke="rgb(250,192,187)" stroke-width="1" opacity="1" d="M 332.5 196 L 333.5 198 L 332.5 196 Z " /><path fill="rgb(250,192,187)" stroke="rgb(250,192,187)" stroke-width="1" opacity="1" d="M 411.5 200 L 412 207.5 L 411 207.5 L 411.5 200 Z " /><path fill="rgb(250,192,187)" stroke="rgb(250,192,187)" stroke-width="1" opacity="1" d="M 216.5 205 L 215.5 207 L 216.5 205 Z " /><path fill="rgb(250,192,187)" stroke="rgb(250,192,187)" stroke-width="1" opacity="1" d="M 295.5 205 L 297.5 208 L 295.5 205 Z " /><path fill="rgb(250,192,187)" stroke="rgb(250,192,187)" stroke-width="1" opacity="1" d="M 101.5 207 L 102 219.5 L 101 219.5 L 101.5 207 Z " /><path fill="rgb(250,192,187)" stroke="rgb(250,192,187)" stroke-width="1" opacity="1" d="M 303.5 213 L 304.5 215 L 303.5 213 Z " /><path fill="rgb(250,192,187)" stroke="rgb(250,192,187)" stroke-width="1" opacity="1" d="M 412.5 226 L 413 257.5 L 412 257.5 L 412.5 226 Z " /><path fill="rgb(250,192,187)" stroke="rgb(250,192,187)" stroke-width="1" opacity="1" d="M 351.5 238 L 352 240.5 L 351 240.5 L 351.5 238 Z " /><path fill="rgb(250,192,187)" stroke="rgb(250,192,187)" stroke-width="1" opacity="1" d="M 159.5 244 L 160 247.5 L 159 247.5 L 159.5 244 Z " /><path fill="rgb(250,192,187)" stroke="rgb(250,192,187)" stroke-width="1" opacity="1" d="M 352.5 245 L 353 249.5 L 352 249.5 L 352.5 245 Z " /><path fill="rgb(250,192,187)" stroke="rgb(250,192,187)" stroke-width="1" opacity="1" d="M 193.5 249 L 194 262.5 L 193 262.5 L 193.5 249 Z " /><path fill="rgb(250,192,187)" stroke="rgb(250,192,187)" stroke-width="1" opacity="1" d="M 318.5 250 L 319 261.5 L 318 261.5 L 318.5 250 Z " /><path fill="rgb(250,192,187)" stroke="rgb(250,192,187)" stroke-width="1" opacity="1" d="M 352.5 262 L 353 266.5 L 352 266.5 L 352.5 262 Z " /><path fill="rgb(250,192,187)" stroke="rgb(250,192,187)" stroke-width="1" opacity="1" d="M 159.5 264 L 160 267.5 L 159 267.5 L 159.5 264 Z " /><path fill="rgb(250,192,187)" stroke="rgb(250,192,187)" stroke-width="1" opacity="1" d="M 351.5 271 L 352 273.5 L 351 273.5 L 351.5 271 Z " /><path fill="rgb(250,192,187)" stroke="rgb(250,192,187)" stroke-width="1" opacity="1" d="M 411.5 284 L 412 296.5 L 411 296.5 L 411.5 284 Z " /><path fill="rgb(250,192,187)" stroke="rgb(250,192,187)" stroke-width="1" opacity="1" d="M 101.5 296 L 102 311.5 L 101 311.5 L 101.5 296 Z " /><path fill="rgb(250,192,187)" stroke="rgb(250,192,187)" stroke-width="1" opacity="1" d="M 207.5 297 L 208.5 299 L 207.5 297 Z " /><path fill="rgb(250,192,187)" stroke="rgb(250,192,187)" stroke-width="1" opacity="1" d="M 304.5 297 L 303.5 299 L 304.5 297 Z " /><path fill="rgb(250,192,187)" stroke="rgb(250,192,187)" stroke-width="1" opacity="1" d="M 215.5 305 L 216.5 307 L 215.5 305 Z " /><path fill="rgb(250,192,187)" stroke="rgb(250,192,187)" stroke-width="1" opacity="1" d="M 296.5 305 L 295.5 307 L 296.5 305 Z " /><path fill="rgb(250,192,187)" stroke="rgb(250,192,187)" stroke-width="1" opacity="1" d="M 175.5 310 L 176.5 312 L 175.5 310 Z " /><path fill="rgb(250,192,187)" stroke="rgb(250,192,187)" stroke-width="1" opacity="1" d="M 410.5 313 L 411 321.5 L 410 321.5 L 410.5 313 Z " /><path fill="rgb(250,192,187)" stroke="rgb(250,192,187)" stroke-width="1" opacity="1" d="M 178.5 314 L 179.5 316 L 178.5 314 Z " /><path fill="rgb(250,192,187)" stroke="rgb(250,192,187)" stroke-width="1" opacity="1" d="M 444.5 314 L 445 326.5 L 444 326.5 L 444.5 314 Z " /><path fill="rgb(250,192,187)" stroke="rgb(250,192,187)" stroke-width="1" opacity="1" d="M 67.5 317 L 68 326.5 L 67 326.5 L 67.5 317 Z " /><path fill="rgb(250,192,187)" stroke="rgb(250,192,187)" stroke-width="1" opacity="1" d="M 245.5 318 L 248 318.5 L 245.5 319 L 245.5 318 Z " /><path fill="rgb(250,192,187)" stroke="rgb(250,192,187)" stroke-width="1" opacity="1" d="M 264.5 318 L 267 318.5 L 264.5 319 L 264.5 318 Z " /><path fill="rgb(250,192,187)" stroke="rgb(250,192,187)" stroke-width="1" opacity="1" d="M 182.5 319 L 185.5 323 L 182.5 319 Z " /><path fill="rgb(250,192,187)" stroke="rgb(250,192,187)" stroke-width="1" opacity="1" d="M 328.5 320 L 320.5 329 L 328.5 320 Z " /><path fill="rgb(250,192,187)" stroke="rgb(250,192,187)" stroke-width="1" opacity="1" d="M 102.5 325 L 103 329.5 L 102 329.5 L 102.5 325 Z " /><path fill="rgb(250,192,187)" stroke="rgb(250,192,187)" stroke-width="1" opacity="1" d="M 189.5 326 L 192.5 330 L 189.5 326 Z " /><path fill="rgb(250,192,187)" stroke="rgb(250,192,187)" stroke-width="1" opacity="1" d="M 196.5 332 L 197.5 334 L 196.5 332 Z " /><path fill="rgb(250,192,187)" stroke="rgb(250,192,187)" stroke-width="1" opacity="1" d="M 200.5 335 L 201.5 337 L 200.5 335 Z " /><path fill="rgb(250,192,187)" stroke="rgb(250,192,187)" stroke-width="1" opacity="1" d="M 409.5 335 L 410 339.5 L 409 339.5 L 409.5 335 Z " /><path fill="rgb(250,192,187)" stroke="rgb(250,192,187)" stroke-width="1" opacity="1" d="M 68.5 336 L 69 340.5 L 68 340.5 L 68.5 336 Z " /><path fill="rgb(250,192,187)" stroke="rgb(250,192,187)" stroke-width="1" opacity="1" d="M 443.5 336 L 444 340.5 L 443 340.5 L 443.5 336 Z " /><path fill="rgb(250,192,187)" stroke="rgb(250,192,187)" stroke-width="1" opacity="1" d="M 103.5 337 L 104 339.5 L 103 339.5 L 103.5 337 Z " /><path fill="rgb(250,192,187)" stroke="rgb(250,192,187)" stroke-width="1" opacity="1" d="M 408.5 345 L 409 347.5 L 408 347.5 L 408.5 345 Z " /><path fill="rgb(250,192,187)" stroke="rgb(250,192,187)" stroke-width="1" opacity="1" d="M 442.5 346 L 443 349.5 L 442 349.5 L 442.5 346 Z " /><path fill="rgb(250,192,187)" stroke="rgb(250,192,187)" stroke-width="1" opacity="1" d="M 244.5 352 L 248 352.5 L 244.5 353 L 244.5 352 Z " /><path fill="rgb(250,192,187)" stroke="rgb(250,192,187)" stroke-width="1" opacity="1" d="M 264.5 352 L 267 352.5 L 264.5 353 L 264.5 352 Z " /><path fill="rgb(250,192,187)" stroke="rgb(250,192,187)" stroke-width="1" opacity="1" d="M 395.5 382 L 394.5 384 L 395.5 382 Z " /><path fill="rgb(250,192,187)" stroke="rgb(250,192,187)" stroke-width="1" opacity="1" d="M 120.5 388 L 123.5 392 L 120.5 388 Z " /><path fill="rgb(250,192,187)" stroke="rgb(250,192,187)" stroke-width="1" opacity="1" d="M 384.5 393 L 383.5 395 L 384.5 393 Z " /><path fill="rgb(250,192,187)" stroke="rgb(250,192,187)" stroke-width="1" opacity="1" d="M 89.5 403 L 90.5 405 L 89.5 403 Z " /><path fill="rgb(250,192,187)" stroke="rgb(250,192,187)" stroke-width="1" opacity="1" d="M 421.5 404 L 420.5 406 L 421.5 404 Z " /><path fill="rgb(250,192,187)" stroke="rgb(250,192,187)" stroke-width="1" opacity="1" d="M 92.5 407 L 94.5 410 L 92.5 407 Z " /><path fill="rgb(250,192,187)" stroke="rgb(250,192,187)" stroke-width="1" opacity="1" d="M 164.5 407 L 167 407.5 L 164.5 408 L 164.5 407 Z " /><path fill="rgb(250,192,187)" stroke="rgb(250,192,187)" stroke-width="1" opacity="1" d="M 172.5 408 L 175 408.5 L 172.5 409 L 172.5 408 Z " /><path fill="rgb(250,192,187)" stroke="rgb(250,192,187)" stroke-width="1" opacity="1" d="M 183.5 409 L 188 409.5 L 183.5 410 L 183.5 409 Z " /><path fill="rgb(250,192,187)" stroke="rgb(250,192,187)" stroke-width="1" opacity="1" d="M 337.5 409 L 341 409.5 L 337.5 410 L 337.5 409 Z " /><path fill="rgb(250,192,187)" stroke="rgb(250,192,187)" stroke-width="1" opacity="1" d="M 202.5 410 L 218 410.5 L 202.5 411 L 202.5 410 Z " /><path fill="rgb(250,192,187)" stroke="rgb(250,192,187)" stroke-width="1" opacity="1" d="M 324.5 410 L 330 410.5 L 324.5 411 L 324.5 410 Z " /><path fill="rgb(250,192,187)" stroke="rgb(250,192,187)" stroke-width="1" opacity="1" d="M 416.5 410 L 409.5 418 L 416.5 410 Z " /><path fill="rgb(250,192,187)" stroke="rgb(250,192,187)" stroke-width="1" opacity="1" d="M 102.5 417 L 104.5 420 L 102.5 417 Z " /><path fill="rgb(250,192,187)" stroke="rgb(250,192,187)" stroke-width="1" opacity="1" d="M 405.5 420 L 404.5 422 L 405.5 420 Z " /><path fill="rgb(250,192,187)" stroke="rgb(250,192,187)" stroke-width="1" opacity="1" d="M 107.5 421 L 108.5 423 L 107.5 421 Z " /><path fill="rgb(250,192,187)" stroke="rgb(250,192,187)" stroke-width="1" opacity="1" d="M 352.5 441 L 355 441.5 L 352.5 442 L 352.5 441 Z " /><path fill="rgb(250,192,187)" stroke="rgb(250,192,187)" stroke-width="1" opacity="1" d="M 172.5 443 L 176 443.5 L 172.5 444 L 172.5 443 Z " /><path fill="rgb(250,192,187)" stroke="rgb(250,192,187)" stroke-width="1" opacity="1" d="M 337.5 443 L 340 443.5 L 337.5 444 L 337.5 443 Z " /><path fill="rgb(250,192,187)" stroke="rgb(250,192,187)" stroke-width="1" opacity="1" d="M 184.5 444 L 192 444.5 L 184.5 445 L 184.5 444 Z " /><path fill="rgb(250,192,187)" stroke="rgb(250,192,187)" stroke-width="1" opacity="1" d="M 321.5 444 L 328 444.5 L 321.5 445 L 321.5 444 Z " /></svg>